<?xml version="1.0" encoding="utf-8"?>
<!-- Generator: Adobe Illustrator 16.0.0, SVG Export Plug-In . SVG Version: 6.00 Build 0)  -->
<!DOCTYPE svg PUBLIC "-//W3C//DTD SVG 1.1//EN" "http://www.w3.org/Graphics/SVG/1.1/DTD/svg11.dtd">
<svg version="1.1" xmlns="http://www.w3.org/2000/svg" xmlns:xlink="http://www.w3.org/1999/xlink" x="0px" y="0px"
	 width="566.93px" height="566.93px" viewBox="0 0 566.93 566.93" enable-background="new 0 0 566.93 566.93" xml:space="preserve">
<g id="LinuQ">
</g>
<g id="Bateau">
</g>
<g id="Pinguouin">
	<g>
		<linearGradient id="SVGID_1_" gradientUnits="userSpaceOnUse" x1="95.0117" y1="370.0088" x2="334.9648" y2="370.0088">
			<stop  offset="0" style="stop-color:#E69A2A"/>
			<stop  offset="1" style="stop-color:#E6AD2A"/>
		</linearGradient>
		<path fill="url(#SVGID_1_)" d="M334.01,323.3c0,0,5.665,25.102-10.592,40.321c-16.264,15.223-5.833,46.074-2.863,50.874
			l-168.059,2.223c0,0-18.053-28.323-19.095-34.609c-1.05-6.274-35.776-32.931-37.247-34.364c-1.471-1.431-2.939-2.374,5.325-0.07
			c8.264,2.312,59.789,18.579,81.094,18.78c21.301,0.204,69.805,6.823,69.639-5.756c-0.058-6.169,12.438-9.567,18.245-11.383
			c5.227-1.638,19.312-3.642,32.779-10.604c0,0-2.535-8.193,11.499-8.866C320.974,325.411,330.151,323.836,334.01,323.3z"/>
		<linearGradient id="SVGID_2_" gradientUnits="userSpaceOnUse" x1="43.9775" y1="340.0742" x2="101.6592" y2="340.0742">
			<stop  offset="0" style="stop-color:#E69A2A"/>
			<stop  offset="1" style="stop-color:#E6AD2A"/>
		</linearGradient>
		<path fill="url(#SVGID_2_)" d="M97.611,311.423c-3.704,13.122-7.368,28.656,4.048,49.812c-11.688-5.173-15.626-9.48-25.309-10.321
			c-9.698-0.842-13.967,5.513-11.964,10.812c2.011,5.292,15.609,7.307,30.86,2.499c-21.024,8.985-36.104,3.86-45.48-9.572
			c-9.377-13.429-6.707-30.895,3.307-42.644L97.611,311.423z"/>
		<linearGradient id="SVGID_3_" gradientUnits="userSpaceOnUse" x1="52.8574" y1="302.9453" x2="75.2109" y2="302.9453">
			<stop  offset="0" style="stop-color:#E69A2A"/>
			<stop  offset="1" style="stop-color:#E6AD2A"/>
		</linearGradient>
		<polygon fill="url(#SVGID_3_)" points="52.857,295.789 69.024,310.103 75.211,310.022 		"/>
		<linearGradient id="SVGID_4_" gradientUnits="userSpaceOnUse" x1="96.6602" y1="339.4561" x2="128.3174" y2="339.4561">
			<stop  offset="0" style="stop-color:#E69A2A"/>
			<stop  offset="1" style="stop-color:#E6AD2A"/>
		</linearGradient>
		<path fill="url(#SVGID_4_)" d="M97.299,328.675c0,0-1.484,3.189,0.072,5.28l14.327,12.953c0,0,12.436,5.354,16.619,2.483
			C128.317,349.392,103.187,330.354,97.299,328.675z"/>
		<linearGradient id="SVGID_5_" gradientUnits="userSpaceOnUse" x1="117.6562" y1="316.9551" x2="198.8887" y2="316.9551">
			<stop  offset="0" style="stop-color:#E69A2A"/>
			<stop  offset="1" style="stop-color:#E6AD2A"/>
		</linearGradient>
		<path fill="url(#SVGID_5_)" d="M178.974,277.909c-7.044,15.582-17.471,32.45,19.915,77.325
			c-22.398-9.037-50.685-25.342-58.086,0.768c-14.797-20.266-32.956-38.908-16.849-65.745L178.974,277.909z"/>
		<linearGradient id="SVGID_6_" gradientUnits="userSpaceOnUse" x1="179.0723" y1="308.7949" x2="267.3193" y2="308.7949">
			<stop  offset="0" style="stop-color:#E69A2A"/>
			<stop  offset="1" style="stop-color:#E6AD2A"/>
		</linearGradient>
		<path fill="url(#SVGID_6_)" d="M197.818,274.266c-11.021,8.864-43.986,28.184,17.423,84.493
			c-4.894-14.938-5.673-31.889,49.383-11.305c-4.051-13.02-26.709-42.244,2.695-88.624L197.818,274.266z"/>
		<linearGradient id="SVGID_7_" gradientUnits="userSpaceOnUse" x1="185.1045" y1="236.0801" x2="267.2559" y2="236.0801">
			<stop  offset="0" style="stop-color:#E69A2A"/>
			<stop  offset="1" style="stop-color:#E6AD2A"/>
		</linearGradient>
		<path fill="url(#SVGID_7_)" d="M267.256,253.989c-8.936-16.836-12.09-35.188-0.662-49.854l-65.62,16.357
			c0,0-30.759,16.864-6.63,47.532C199.983,255.355,218.674,241.072,267.256,253.989z"/>
		<linearGradient id="SVGID_8_" gradientUnits="userSpaceOnUse" x1="113.4688" y1="254.79" x2="180.7031" y2="254.79">
			<stop  offset="0" style="stop-color:#E69A2A"/>
			<stop  offset="1" style="stop-color:#E6AD2A"/>
		</linearGradient>
		<path fill="url(#SVGID_8_)" d="M180.703,225.115c0,0-14.824,13.754-2.033,47.951c-25.042-8.863-48.772-9.514-56.245,11.398
			c-8.87-11.985-15.953-34.649,3.213-49.909L180.703,225.115z"/>
		<linearGradient id="SVGID_9_" gradientUnits="userSpaceOnUse" x1="259.4453" y1="277.7354" x2="325.2754" y2="277.7354">
			<stop  offset="0" style="stop-color:#E69A2A"/>
			<stop  offset="1" style="stop-color:#E6AD2A"/>
		</linearGradient>
		<path fill="url(#SVGID_9_)" d="M325.275,320.994c-18.599-15.251-30.073-40.752-0.953-72.12
			c-9.661,2.066-26.523,8.706-31.319,11.667l-3.491-44.123c0,0-2.521-7.715-3.387,0.044c-0.863,7.757-0.196,47.445-0.196,47.445
			c-12.15,7.419-46.673,32.574-10.245,78.562c0.72-19.377,21.47-20.611,35.098-18.864
			C324.411,325.361,321.429,322.982,325.275,320.994z"/>
		<linearGradient id="SVGID_10_" gradientUnits="userSpaceOnUse" x1="231.8232" y1="182.7236" x2="239.0557" y2="182.7236">
			<stop  offset="0" style="stop-color:#E69A2A"/>
			<stop  offset="1" style="stop-color:#E6AD2A"/>
		</linearGradient>
		<path fill="url(#SVGID_10_)" d="M239.056,207.885l-7.232,4.913l2.319-53.748c0.292-7.746,5.109-9.266,4.267-0.056
			C237.561,168.209,239.056,207.885,239.056,207.885z"/>
		<linearGradient id="SVGID_11_" gradientUnits="userSpaceOnUse" x1="177.5186" y1="178.459" x2="231.2559" y2="178.459">
			<stop  offset="0" style="stop-color:#E69A2A"/>
			<stop  offset="1" style="stop-color:#E6AD2A"/>
		</linearGradient>
		<path fill="url(#SVGID_11_)" d="M229.576,186.933c-0.699-6.283,1.666-15.733,1.68-17.188c0.009-1.452-11.733,3.616-23.533,2.723
			c-30.413-2.267-26.658,7.14-30.204,13.479c8.995,2.787,26.58,1.103,35.432-0.469C221.792,183.907,229.576,186.933,229.576,186.933
			z"/>
		<linearGradient id="SVGID_12_" gradientUnits="userSpaceOnUse" x1="149.29" y1="201.4395" x2="156.875" y2="201.4395">
			<stop  offset="0" style="stop-color:#E69A2A"/>
			<stop  offset="1" style="stop-color:#E6AD2A"/>
		</linearGradient>
		<path fill="url(#SVGID_12_)" d="M156.875,227.368l-3.345-43.577c0,0-3.641-18.875-4.114,0.056
			c-0.482,18.936,0.576,43.612,0.576,43.612L156.875,227.368z"/>
		<linearGradient id="SVGID_13_" gradientUnits="userSpaceOnUse" x1="116.1465" y1="202.4844" x2="146.6426" y2="202.4844">
			<stop  offset="0" style="stop-color:#E69A2A"/>
			<stop  offset="1" style="stop-color:#E6AD2A"/>
		</linearGradient>
		<path fill="url(#SVGID_13_)" d="M146.643,208.62c-1.125-8.208-0.573-10.64-0.235-17.913c-6.317,1.537-24.712,7.116-30.261,6.22
			c1.796,4.811,5.29,12.474,4.867,17.336C127.776,213.231,146.643,208.62,146.643,208.62z"/>
	</g>
	<linearGradient id="SVGID_14_" gradientUnits="userSpaceOnUse" x1="200.1348" y1="299.248" x2="288.9502" y2="299.248">
		<stop  offset="0" style="stop-color:#132459"/>
		<stop  offset="1" style="stop-color:#10345B"/>
	</linearGradient>
	<polygon fill="url(#SVGID_14_)" points="288.654,213.171 286.143,242.543 286.269,242.449 286.212,243.13 286.143,243.949 
		286.127,244.067 285.859,244.244 284.801,244.953 251.42,274.82 249.303,278.314 208.353,346.102 208.042,346.621 214.282,388.648 
		216.273,388.851 205.401,388.344 200.812,346.182 200.135,339.992 246.717,260.783 273.659,228.705 288.95,209.646 	"/>
	<linearGradient id="SVGID_15_" gradientUnits="userSpaceOnUse" x1="208.042" y1="310.8809" x2="251.4199" y2="310.8809">
		<stop  offset="0" style="stop-color:#073689"/>
		<stop  offset="1" style="stop-color:#195589"/>
	</linearGradient>
	<polygon fill="url(#SVGID_15_)" points="251.42,274.82 242.213,346.941 208.042,346.621 	"/>
	<linearGradient id="SVGID_16_" gradientUnits="userSpaceOnUse" x1="208.042" y1="368.085" x2="242.2129" y2="368.085">
		<stop  offset="0" style="stop-color:#002E7F"/>
		<stop  offset="1" style="stop-color:#16497F"/>
	</linearGradient>
	<polygon fill="url(#SVGID_16_)" points="242.213,346.941 222.98,389.549 216.273,388.851 214.282,388.648 208.042,346.621 	"/>
	<linearGradient id="SVGID_17_" gradientUnits="userSpaceOnUse" x1="416.5156" y1="295.6436" x2="510.9512" y2="295.6436">
		<stop  offset="0" style="stop-color:#132459"/>
		<stop  offset="1" style="stop-color:#10345B"/>
	</linearGradient>
	<polygon fill="url(#SVGID_17_)" points="510.951,361.462 506.56,396.82 501.505,398.243 501.505,344.507 500.332,341.881 
		478.715,293.544 478.658,293.424 457.295,274.016 452.083,269.273 449.062,266.542 423.66,243.496 416.516,193.044 
		429.617,211.348 459.539,254.193 461.685,257.275 469.227,268.083 472.008,272.06 482.146,286.579 487.229,293.866 
		504.583,343.326 	"/>
	<linearGradient id="SVGID_18_" gradientUnits="userSpaceOnUse" x1="423.6602" y1="286.1387" x2="478.7148" y2="286.1387">
		<stop  offset="0" style="stop-color:#073689"/>
		<stop  offset="1" style="stop-color:#195589"/>
	</linearGradient>
	<polygon fill="url(#SVGID_18_)" points="478.715,293.544 461.375,328.781 429.745,287.744 423.66,243.496 478.658,293.424 	"/>
	<linearGradient id="SVGID_19_" gradientUnits="userSpaceOnUse" x1="461.375" y1="364.7383" x2="501.5049" y2="364.7383">
		<stop  offset="0" style="stop-color:#073689"/>
		<stop  offset="1" style="stop-color:#195589"/>
	</linearGradient>
	<polygon fill="url(#SVGID_19_)" points="501.505,344.507 501.505,398.243 492.496,400.747 461.375,328.781 461.404,328.729 	"/>
	<linearGradient id="SVGID_20_" gradientUnits="userSpaceOnUse" x1="272.085" y1="440.418" x2="341.9307" y2="440.418">
		<stop  offset="0" style="stop-color:#D68829"/>
		<stop  offset="1" style="stop-color:#D69D29"/>
	</linearGradient>
	<polygon fill="url(#SVGID_20_)" points="341.931,422.626 341.931,440.797 310.338,456.586 302.531,458.535 279.115,458.535 
		272.085,460.02 283.679,445.756 332.833,420.816 334.544,421.143 	"/>
	<linearGradient id="SVGID_21_" gradientUnits="userSpaceOnUse" x1="263.4902" y1="431.7754" x2="332.833" y2="431.7754">
		<stop  offset="0" style="stop-color:#E69A2A"/>
		<stop  offset="1" style="stop-color:#E6AD2A"/>
	</linearGradient>
	<polygon fill="url(#SVGID_21_)" points="283.679,445.756 283.8,445.599 272.085,444.994 263.49,445.599 308.312,422.213 
		308.195,417.796 332.833,420.816 	"/>
	<linearGradient id="SVGID_22_" gradientUnits="userSpaceOnUse" x1="353.502" y1="442.8896" x2="417.0771" y2="442.8896">
		<stop  offset="0" style="stop-color:#D68829"/>
		<stop  offset="1" style="stop-color:#D69D29"/>
	</linearGradient>
	<polygon fill="url(#SVGID_22_)" points="373.395,461.448 374.157,459.76 367.132,458.993 353.502,463.632 360.968,447.008 
		381.195,430.398 382.582,424.296 390.855,422.147 417.077,422.147 	"/>
	<linearGradient id="SVGID_23_" gradientUnits="userSpaceOnUse" x1="367.1318" y1="448.6865" x2="417.2295" y2="448.6865">
		<stop  offset="0" style="stop-color:#E69A2A"/>
		<stop  offset="1" style="stop-color:#E6AD2A"/>
	</linearGradient>
	<polygon fill="url(#SVGID_23_)" points="417.229,422.147 417.229,446.631 397.02,475.226 397.02,466.721 378.558,471.357 
		367.132,475.226 373.395,461.448 417.077,422.147 	"/>
	<linearGradient id="SVGID_24_" gradientUnits="userSpaceOnUse" x1="280.9883" y1="386.4883" x2="353.9609" y2="386.4883">
		<stop  offset="0" style="stop-color:#073689"/>
		<stop  offset="1" style="stop-color:#195589"/>
	</linearGradient>
	<polyline fill="url(#SVGID_24_)" points="280.988,363.792 353.961,392.869 353.312,393.111 308.057,409.184 307.902,409.131 
		281.51,364.676 281.312,364.343 281.043,363.888 280.988,363.792 	"/>
	<linearGradient id="SVGID_25_" gradientUnits="userSpaceOnUse" x1="280.9883" y1="333.0684" x2="312.1523" y2="333.0684">
		<stop  offset="0" style="stop-color:#002E7F"/>
		<stop  offset="1" style="stop-color:#16497F"/>
	</linearGradient>
	<polygon fill="url(#SVGID_25_)" points="312.152,311.357 280.988,363.792 280.988,302.345 311.968,311.305 	"/>
	<linearGradient id="SVGID_26_" gradientUnits="userSpaceOnUse" x1="280.9883" y1="260.502" x2="312.1523" y2="260.502">
		<stop  offset="0" style="stop-color:#132459"/>
		<stop  offset="1" style="stop-color:#10345B"/>
	</linearGradient>
	<polygon fill="url(#SVGID_26_)" points="312.152,311.357 311.968,311.305 280.988,302.345 280.988,301.633 281.029,301.258 
		283.062,278.488 283.105,277.98 283.134,277.645 286.143,243.949 286.212,243.13 286.269,242.449 286.143,242.543 288.654,213.171 
		288.95,209.646 	"/>
	<linearGradient id="SVGID_27_" gradientUnits="userSpaceOnUse" x1="348.084" y1="178.8115" x2="416.5156" y2="178.8115">
		<stop  offset="0" style="stop-color:#132459"/>
		<stop  offset="1" style="stop-color:#10345B"/>
	</linearGradient>
	<polygon fill="url(#SVGID_27_)" points="348.084,202.211 389.983,155.412 389.997,155.427 389.997,155.441 390.322,155.906 
		391.58,157.7 416.516,193.044 	"/>
	<linearGradient id="SVGID_28_" gradientUnits="userSpaceOnUse" x1="288.9512" y1="183.9141" x2="348.084" y2="183.9141">
		<stop  offset="0" style="stop-color:#073689"/>
		<stop  offset="1" style="stop-color:#195589"/>
	</linearGradient>
	<polygon fill="url(#SVGID_28_)" points="307.521,207.39 307.507,207.39 288.951,209.648 288.951,209.62 294.939,196.899 
		312.732,159.069 313.142,158.209 313.749,158.18 348.084,202.211 	"/>
	<linearGradient id="SVGID_29_" gradientUnits="userSpaceOnUse" x1="339.6729" y1="132.6348" x2="389.9834" y2="132.6348">
		<stop  offset="0" style="stop-color:#073689"/>
		<stop  offset="1" style="stop-color:#195589"/>
	</linearGradient>
	<polygon fill="url(#SVGID_29_)" points="389.983,155.412 339.673,157.05 370.65,108.22 380.323,125.723 380.621,126.675 
		386.607,145.173 386.607,145.186 	"/>
	<linearGradient id="SVGID_30_" gradientUnits="userSpaceOnUse" x1="323.1777" y1="108.3926" x2="370.6504" y2="108.3926">
		<stop  offset="0" style="stop-color:#002E7F"/>
		<stop  offset="1" style="stop-color:#16497F"/>
	</linearGradient>
	<polygon fill="url(#SVGID_30_)" points="370.65,108.22 328.559,120.152 323.178,97.798 350.135,96.634 350.333,96.729 
		350.316,96.742 350.656,96.915 	"/>
	<linearGradient id="SVGID_31_" gradientUnits="userSpaceOnUse" x1="296.8154" y1="127.9863" x2="339.6729" y2="127.9863">
		<stop  offset="0" style="stop-color:#073689"/>
		<stop  offset="1" style="stop-color:#195589"/>
	</linearGradient>
	<path fill="url(#SVGID_31_)" d="M328.559,120.152l-5.381-22.354l-26.362,27.925l0.101,0.189l8.626,16.381l6.792,12.857v0.011
		l0.424,0.806v0.014l0.438,0.83l0.31,0.602l-0.141,0.281v0.014l0.381,0.469l25.927-1.126L328.559,120.152z M330.706,137.525
		l0.564,0.133l-0.75,0.253L330.706,137.525z"/>
	<linearGradient id="SVGID_32_" gradientUnits="userSpaceOnUse" x1="242.2129" y1="295.5039" x2="286.127" y2="295.5039">
		<stop  offset="0" style="stop-color:#002E7F"/>
		<stop  offset="1" style="stop-color:#16497F"/>
	</linearGradient>
	<polygon fill="url(#SVGID_32_)" points="286.127,244.067 283.134,277.645 283.105,277.98 283.062,278.488 281.029,301.258 
		280.999,302.624 254.695,332.17 242.213,346.941 251.42,274.82 284.801,244.953 285.859,244.244 	"/>
	<linearGradient id="SVGID_33_" gradientUnits="userSpaceOnUse" x1="367.6143" y1="398.916" x2="430.8184" y2="398.916">
		<stop  offset="0" style="stop-color:#073689"/>
		<stop  offset="1" style="stop-color:#195589"/>
	</linearGradient>
	<polygon fill="url(#SVGID_33_)" points="430.818,366.725 430.818,366.725 430.748,366.967 422.317,394.557 421.061,398.671 
		420.737,399.715 417.248,425.216 417.234,425.242 417.078,425.378 390.858,425.378 382.584,427.413 380.268,427.99 
		376.385,428.952 376.371,428.952 367.614,431.107 	"/>
	<linearGradient id="SVGID_34_" gradientUnits="userSpaceOnUse" x1="307.9023" y1="420.1133" x2="366.373" y2="420.1133">
		<stop  offset="0" style="stop-color:#132459"/>
		<stop  offset="1" style="stop-color:#10345B"/>
	</linearGradient>
	<polygon fill="url(#SVGID_34_)" points="366.373,431.095 344.686,426.958 336.367,425.378 334.447,425.028 308.238,420.248 
		307.902,409.131 307.902,409.131 	"/>
	<linearGradient id="SVGID_35_" gradientUnits="userSpaceOnUse" x1="307.9023" y1="398.9766" x2="430.8184" y2="398.9766">
		<stop  offset="0" style="stop-color:#002E7F"/>
		<stop  offset="1" style="stop-color:#16497F"/>
	</linearGradient>
	<polygon fill="url(#SVGID_35_)" points="430.818,366.725 430.818,366.725 367.614,431.107 367.135,431.229 366.797,431.175 
		366.556,431.136 366.401,431.095 366.373,431.095 307.902,409.131 307.902,409.131 307.902,409.131 353.312,393.111 
		353.961,392.869 	"/>
	<linearGradient id="SVGID_36_" gradientUnits="userSpaceOnUse" x1="280.9883" y1="364.6152" x2="398.6533" y2="364.6152">
		<stop  offset="0" style="stop-color:#002E7F"/>
		<stop  offset="1" style="stop-color:#16497F"/>
	</linearGradient>
	<polygon fill="url(#SVGID_36_)" points="398.653,336.391 398.653,336.362 398.653,336.391 353.961,392.869 280.988,363.792 
		398.653,336.362 	"/>
	<linearGradient id="SVGID_37_" gradientUnits="userSpaceOnUse" x1="353.9609" y1="343.417" x2="430.8184" y2="343.417">
		<stop  offset="0" style="stop-color:#132459"/>
		<stop  offset="1" style="stop-color:#10345B"/>
	</linearGradient>
	<polygon fill="url(#SVGID_37_)" points="430.805,293.965 430.818,366.725 353.961,392.869 353.961,392.869 398.653,336.391 
		398.666,336.377 398.978,335.974 	"/>
	<linearGradient id="SVGID_38_" gradientUnits="userSpaceOnUse" x1="398.6533" y1="264.7168" x2="430.8057" y2="264.7168">
		<stop  offset="0" style="stop-color:#002E7F"/>
		<stop  offset="1" style="stop-color:#16497F"/>
	</linearGradient>
	<polygon fill="url(#SVGID_38_)" points="430.806,293.963 398.653,336.391 408.425,264.46 408.479,264.123 408.538,263.684 
		416.516,193.044 	"/>
	<linearGradient id="SVGID_39_" gradientUnits="userSpaceOnUse" x1="312.1523" y1="300.3281" x2="408.4932" y2="300.3281">
		<stop  offset="0" style="stop-color:#073689"/>
		<stop  offset="1" style="stop-color:#195589"/>
	</linearGradient>
	<polygon fill="url(#SVGID_39_)" points="399.032,333.591 398.653,336.362 398.06,336.203 393.823,334.971 388.118,333.321 
		322.529,314.358 312.152,311.357 320.128,307.902 369.254,283.66 377.628,279.52 408.493,264.294 	"/>
	<linearGradient id="SVGID_40_" gradientUnits="userSpaceOnUse" x1="280.9883" y1="337.5742" x2="398.6533" y2="337.5742">
		<stop  offset="0" style="stop-color:#132459"/>
		<stop  offset="1" style="stop-color:#10345B"/>
	</linearGradient>
	<polygon fill="url(#SVGID_40_)" points="398.653,336.364 280.988,363.79 312.154,311.359 322.531,314.359 388.119,333.321 
		393.824,334.97 	"/>
	<linearGradient id="SVGID_41_" gradientUnits="userSpaceOnUse" x1="312.1523" y1="278.4834" x2="408.4932" y2="278.4834">
		<stop  offset="0" style="stop-color:#002E7F"/>
		<stop  offset="1" style="stop-color:#16497F"/>
	</linearGradient>
	<polygon fill="url(#SVGID_41_)" points="408.493,264.294 377.628,279.52 369.254,283.66 320.128,307.902 312.152,311.357 
		316.711,305.759 368.28,245.609 	"/>
	<linearGradient id="SVGID_42_" gradientUnits="userSpaceOnUse" x1="288.9502" y1="260.502" x2="368.2803" y2="260.502">
		<stop  offset="0" style="stop-color:#073689"/>
		<stop  offset="1" style="stop-color:#195589"/>
	</linearGradient>
	<polygon fill="url(#SVGID_42_)" points="368.28,245.609 316.697,306.054 312.152,311.357 288.95,209.646 	"/>
	<linearGradient id="SVGID_43_" gradientUnits="userSpaceOnUse" x1="288.9502" y1="233.252" x2="408.4932" y2="233.252">
		<stop  offset="0" style="stop-color:#132459"/>
		<stop  offset="1" style="stop-color:#10345B"/>
	</linearGradient>
	<polygon fill="url(#SVGID_43_)" points="408.493,264.294 288.95,209.646 308.039,207.097 308.054,207.097 347.491,202.297 
		348.084,202.211 359.297,213.65 	"/>
	<linearGradient id="SVGID_44_" gradientUnits="userSpaceOnUse" x1="348.084" y1="228.6768" x2="416.5156" y2="228.6768">
		<stop  offset="0" style="stop-color:#073689"/>
		<stop  offset="1" style="stop-color:#195589"/>
	</linearGradient>
	<polygon fill="url(#SVGID_44_)" points="408.494,264.296 348.084,202.211 416.516,193.058 	"/>
	<linearGradient id="SVGID_45_" gradientUnits="userSpaceOnUse" x1="313.749" y1="178.8115" x2="389.9834" y2="178.8115">
		<stop  offset="0" style="stop-color:#002E7F"/>
		<stop  offset="1" style="stop-color:#16497F"/>
	</linearGradient>
	<polygon fill="url(#SVGID_45_)" points="348.084,202.211 313.749,158.18 339.674,157.05 389.983,155.412 	"/>
	<linearGradient id="SVGID_46_" gradientUnits="userSpaceOnUse" x1="328.5586" y1="132.6348" x2="370.6504" y2="132.6348">
		<stop  offset="0" style="stop-color:#132459"/>
		<stop  offset="1" style="stop-color:#10345B"/>
	</linearGradient>
	<polygon fill="url(#SVGID_46_)" points="370.65,108.22 339.673,157.05 328.559,120.152 	"/>
	<linearGradient id="SVGID_47_" gradientUnits="userSpaceOnUse" x1="461.4043" y1="319.0254" x2="501.5049" y2="319.0254">
		<stop  offset="0" style="stop-color:#002E7F"/>
		<stop  offset="1" style="stop-color:#16497F"/>
	</linearGradient>
	<polygon fill="url(#SVGID_47_)" points="501.505,344.507 461.404,328.729 478.715,293.544 	"/>
	<linearGradient id="SVGID_48_" gradientUnits="userSpaceOnUse" x1="393.5898" y1="212.5371" x2="336.7675" y2="276.8732">
		<stop  offset="0" style="stop-color:#E69A2A"/>
		<stop  offset="1" style="stop-color:#E6AD2A"/>
	</linearGradient>
	<path fill="url(#SVGID_48_)" d="M386.549,260.775c-0.485,9.907-7.889,12.581-11.717,12.256c0.483-0.676,1.32-3.696,0.836-6.887
		c-0.52-3.183-5.215-4.51-7.56-3.183c-2.351,1.352-4.54,5.045-4.702,10.069h7.21v7.372h-13.069v2.186l4.861,4.701l-9.723,10.399
		v0.052l-9.912-10.4l4.939-4.699v-2.183h-13.309v-7.378h7.344c-0.155-5.046-2.407-8.719-4.777-10.07
		c-2.401-1.343-7.182,0-7.693,3.186c-0.518,3.19,0.352,6.211,0.856,6.885c-3.938,0.327-11.446-2.345-11.958-12.254
		c-0.513-9.882,9.722-12.744,16.394-11.236c6.673,1.519,12.121,7.345,12.312,23.87h2.89l0.186-11.282
		c-1.021-6.892-8.558-18.635-7.859-29.026c0.677-10.397,8.378-16.935,10.589-19.28v-0.054c2.185,2.351,9.723,8.911,10.393,19.304
		c0.674,10.395-6.719,22.143-7.721,29.003l0.168,11.314h2.857c0.163-16.556,5.535-22.389,12.07-23.906
		C376.988,248.024,387.06,250.885,386.549,260.775z"/>
	<linearGradient id="SVGID_49_" gradientUnits="userSpaceOnUse" x1="255.4131" y1="136.7578" x2="310.1855" y2="136.7578">
		<stop  offset="0" style="stop-color:#D68829"/>
		<stop  offset="1" style="stop-color:#D69D29"/>
	</linearGradient>
	<polygon fill="url(#SVGID_49_)" points="310.186,130.681 255.676,149.889 255.413,149.944 273.86,135.884 300.151,124.376 
		301.982,123.57 309.895,123.57 309.895,130.611 	"/>
	<linearGradient id="SVGID_50_" gradientUnits="userSpaceOnUse" x1="255.6758" y1="140.2852" x2="334.5039" y2="140.2852">
		<stop  offset="0" style="stop-color:#E69A2A"/>
		<stop  offset="1" style="stop-color:#E6AD2A"/>
	</linearGradient>
	<polygon fill="url(#SVGID_50_)" points="334.504,136.758 333.756,137.023 319.572,142.031 308.785,141.646 295.835,141.16 
		255.676,149.889 310.186,130.681 	"/>
</g>
</svg>
