<?xml version="1.0" encoding="utf-8"?>
<!-- Generator: Adobe Illustrator 16.0.0, SVG Export Plug-In . SVG Version: 6.00 Build 0)  -->
<!DOCTYPE svg PUBLIC "-//W3C//DTD SVG 1.1//EN" "http://www.w3.org/Graphics/SVG/1.1/DTD/svg11.dtd">
<svg version="1.1" xmlns="http://www.w3.org/2000/svg" xmlns:xlink="http://www.w3.org/1999/xlink" x="0px" y="0px"
	 width="752.968px" height="408px" viewBox="0 0 752.968 408" enable-background="new 0 0 752.968 408" xml:space="preserve">
<g id="LinuQ">
</g>
<g id="Bateau">
</g>
<g id="Pinguouin">
	<g>
		
			<linearGradient id="SVGID_1_" gradientUnits="userSpaceOnUse" x1="420.8818" y1="-1312.1582" x2="503.9531" y2="-1312.1582" gradientTransform="matrix(0 1 -1 0 -633.2183 -421.8818)">
			<stop  offset="0" style="stop-color:#073689"/>
			<stop  offset="1" style="stop-color:#195589"/>
		</linearGradient>
		<polygon fill="url(#SVGID_1_)" points="752.968,82.071 604.912,20.738 752.968,-1 		"/>
		
			<linearGradient id="SVGID_2_" gradientUnits="userSpaceOnUse" x1="829.9565" y1="-1144.8862" x2="728.8315" y2="-1144.8862" gradientTransform="matrix(0 1 -1 0 -633.2183 -421.8818)">
			<stop  offset="0.3732" style="stop-color:#073689"/>
			<stop  offset="0.596" style="stop-color:#0B3C89"/>
			<stop  offset="0.8991" style="stop-color:#154E89"/>
			<stop  offset="1" style="stop-color:#195589"/>
		</linearGradient>
		<polygon fill="url(#SVGID_2_)" points="655.562,408 374.613,408.074 367.776,383.479 650.233,306.949 		"/>
		
			<linearGradient id="SVGID_3_" gradientUnits="userSpaceOnUse" x1="420.8818" y1="-755.3594" x2="620.0967" y2="-755.3594" gradientTransform="matrix(0 1 -1 0 -633.2183 -421.8818)">
			<stop  offset="0" style="stop-color:#073689"/>
			<stop  offset="1" style="stop-color:#195589"/>
		</linearGradient>
		<polyline fill="url(#SVGID_3_)" points="184.1,-1 104.721,198.215 104.058,196.441 60.182,72.896 60.328,72.475 181.688,0.424 
			182.597,-0.115 183.839,-0.85 184.1,-1 		"/>
		
			<linearGradient id="SVGID_4_" gradientUnits="userSpaceOnUse" x1="420.8818" y1="-901.1924" x2="505.958" y2="-901.1924" gradientTransform="matrix(0 1 -1 0 -633.2183 -421.8818)">
			<stop  offset="0" style="stop-color:#002E7F"/>
			<stop  offset="1" style="stop-color:#16497F"/>
		</linearGradient>
		<polygon fill="url(#SVGID_4_)" points="327.245,84.076 184.1,-1 351.848,-1 327.39,83.573 		"/>
		
			<linearGradient id="SVGID_5_" gradientUnits="userSpaceOnUse" x1="420.8818" y1="-1099.2969" x2="505.958" y2="-1099.2969" gradientTransform="matrix(0 1 -1 0 -633.2183 -421.8818)">
			<stop  offset="0" style="stop-color:#132459"/>
			<stop  offset="1" style="stop-color:#10345B"/>
		</linearGradient>
		<polygon fill="url(#SVGID_5_)" points="327.245,84.076 327.39,83.573 351.848,-1 595.292,19.93 604.912,20.738 		"/>
		
			<linearGradient id="SVGID_6_" gradientUnits="userSpaceOnUse" x1="442.623" y1="-1312.1543" x2="604.0508" y2="-1312.1543" gradientTransform="matrix(0 1 -1 0 -633.2183 -421.8818)">
			<stop  offset="0" style="stop-color:#073689"/>
			<stop  offset="1" style="stop-color:#195589"/>
		</linearGradient>
		<polygon fill="url(#SVGID_6_)" points="611.078,71.432 611.078,71.396 604.903,20.741 604.982,20.741 752.968,82.071 
			625.211,182.169 		"/>
		
			<linearGradient id="SVGID_7_" gradientUnits="userSpaceOnUse" x1="717.3188" y1="-1337.4834" x2="829.8813" y2="-1337.4834" gradientTransform="matrix(0 1 -1 0 -633.2183 -421.8818)">
			<stop  offset="0" style="stop-color:#073689"/>
			<stop  offset="1" style="stop-color:#195589"/>
		</linearGradient>
		<polygon fill="url(#SVGID_7_)" points="655.562,408 752.968,295.438 752.968,408 		"/>
		
			<linearGradient id="SVGID_8_" gradientUnits="userSpaceOnUse" x1="-1501.7407" y1="-1066.9473" x2="-1443.9478" y2="-1066.9473" gradientTransform="matrix(-0.1436 -0.9896 0.9896 -0.1436 1396.7722 -1611.647)">
			<stop  offset="0" style="stop-color:#002E7F"/>
			<stop  offset="1" style="stop-color:#16497F"/>
		</linearGradient>
		<polygon fill="url(#SVGID_8_)" points="752.968,-1 604.473,20.738 351.848,-1 		"/>
		
			<linearGradient id="SVGID_9_" gradientUnits="userSpaceOnUse" x1="657.3701" y1="-721.4297" x2="829.9146" y2="-721.4297" gradientTransform="matrix(0 1 -1 0 -633.2183 -421.8818)">
			<stop  offset="0" style="stop-color:#073689"/>
			<stop  offset="1" style="stop-color:#195589"/>
		</linearGradient>
		<polygon fill="url(#SVGID_9_)" points="176.093,408.032 176.093,408.032 175.433,407.841 0.366,367.17 0.33,235.488 		"/>
		
			<linearGradient id="SVGID_10_" gradientUnits="userSpaceOnUse" x1="420.8818" y1="-663.5645" x2="653.9795" y2="-663.5645" gradientTransform="matrix(0 1 -1 0 -633.2183 -421.8818)">
			<stop  offset="0" style="stop-color:#132459"/>
			<stop  offset="1" style="stop-color:#10345B"/>
		</linearGradient>
		<polygon fill="url(#SVGID_10_)" points="0.366,232.098 0.366,-1 60.328,72.475 60.328,72.475 		"/>
		
			<linearGradient id="SVGID_11_" gradientUnits="userSpaceOnUse" x1="494.3564" y1="-721.2656" x2="829.9146" y2="-721.2656" gradientTransform="matrix(0 1 -1 0 -633.2183 -421.8818)">
			<stop  offset="0" style="stop-color:#002E7F"/>
			<stop  offset="1" style="stop-color:#16497F"/>
		</linearGradient>
		<polygon fill="url(#SVGID_11_)" points="176.093,408.032 176.093,408.032 0.33,235.488 0,234.18 0.148,233.256 0.254,232.599 
			0.366,232.178 0.366,232.098 60.328,72.475 60.328,72.475 60.328,72.475 104.058,196.441 104.721,198.215 		"/>
		
			<linearGradient id="SVGID_12_" gradientUnits="userSpaceOnUse" x1="420.8818" y1="-815.0703" x2="742.104" y2="-815.0703" gradientTransform="matrix(0 1 -1 0 -633.2183 -421.8818)">
			<stop  offset="0" style="stop-color:#002E7F"/>
			<stop  offset="1" style="stop-color:#16497F"/>
		</linearGradient>
		<polygon fill="url(#SVGID_12_)" points="258.905,320.223 258.983,320.223 258.905,320.223 104.721,198.215 184.1,-1 
			258.983,320.223 		"/>
		
			<linearGradient id="SVGID_13_" gradientUnits="userSpaceOnUse" x1="620.0967" y1="-872.9414" x2="829.9146" y2="-872.9414" gradientTransform="matrix(0 1 -1 0 -633.2183 -421.8818)">
			<stop  offset="0" style="stop-color:#132459"/>
			<stop  offset="1" style="stop-color:#10345B"/>
		</linearGradient>
		<polygon fill="url(#SVGID_13_)" points="374.725,407.995 176.093,408.032 104.721,198.215 104.721,198.215 258.905,320.223 
			258.944,320.26 260.043,321.105 		"/>
		
			<linearGradient id="SVGID_14_" gradientUnits="userSpaceOnUse" x1="742.104" y1="-1087.7871" x2="829.8813" y2="-1087.7871" gradientTransform="matrix(0 1 -1 0 -633.2183 -421.8818)">
			<stop  offset="0" style="stop-color:#002E7F"/>
			<stop  offset="1" style="stop-color:#16497F"/>
		</linearGradient>
		<polygon fill="url(#SVGID_14_)" points="374.73,408 258.905,320.223 455.271,346.897 456.197,347.047 457.396,347.207 
			650.233,368.987 		"/>
		
			<linearGradient id="SVGID_15_" gradientUnits="userSpaceOnUse" x1="505.958" y1="-990.5718" x2="768.9673" y2="-990.5718" gradientTransform="matrix(0 1 -1 0 -633.2183 -421.8818)">
			<stop  offset="0" style="stop-color:#073689"/>
			<stop  offset="1" style="stop-color:#195589"/>
		</linearGradient>
		<polygon fill="url(#SVGID_15_)" points="266.547,321.259 258.983,320.223 259.417,318.602 262.782,307.035 267.283,291.463 
			319.053,112.405 327.245,84.076 336.677,105.852 402.858,239.963 414.16,262.823 455.724,347.086 		"/>
		
			<linearGradient id="SVGID_16_" gradientUnits="userSpaceOnUse" x1="420.8818" y1="-888.8906" x2="742.104" y2="-888.8906" gradientTransform="matrix(0 1 -1 0 -633.2183 -421.8818)">
			<stop  offset="0" style="stop-color:#132459"/>
			<stop  offset="1" style="stop-color:#10345B"/>
		</linearGradient>
		<polygon fill="url(#SVGID_16_)" points="258.977,320.223 184.106,-1 327.239,84.083 319.051,112.413 267.283,291.465 
			262.785,307.039 		"/>
		
			<linearGradient id="SVGID_17_" gradientUnits="userSpaceOnUse" x1="442.6201" y1="-1099.2969" x2="659.1875" y2="-1099.2969" gradientTransform="matrix(0 1 -1 0 -633.2183 -421.8818)">
			<stop  offset="0" style="stop-color:#073689"/>
			<stop  offset="1" style="stop-color:#195589"/>
		</linearGradient>
		<polygon fill="url(#SVGID_17_)" points="506.737,237.306 341.725,96.484 327.245,84.076 604.912,20.738 		"/>
		
			<linearGradient id="SVGID_18_" gradientUnits="userSpaceOnUse" x1="442.6201" y1="-1173.686" x2="768.9673" y2="-1173.686" gradientTransform="matrix(0 1 -1 0 -633.2183 -421.8818)">
			<stop  offset="0" style="stop-color:#132459"/>
			<stop  offset="1" style="stop-color:#10345B"/>
		</linearGradient>
		<polygon fill="url(#SVGID_18_)" points="455.724,347.086 604.912,20.738 611.874,72.851 611.874,72.891 624.978,180.553 
			625.211,182.169 593.986,212.78 		"/>
		
			<linearGradient id="SVGID_19_" gradientUnits="userSpaceOnUse" x1="604.0508" y1="-1186.1802" x2="790.8696" y2="-1186.1802" gradientTransform="matrix(0 1 -1 0 -633.2183 -421.8818)">
			<stop  offset="0" style="stop-color:#073689"/>
			<stop  offset="1" style="stop-color:#195589"/>
		</linearGradient>
		<polygon fill="url(#SVGID_19_)" points="455.724,347.09 625.211,182.169 650.2,368.987 		"/>
		
			<linearGradient id="SVGID_20_" gradientUnits="userSpaceOnUse" x1="503.9531" y1="-1322.3081" x2="718.436" y2="-1322.3081" gradientTransform="matrix(0 1 -1 0 -633.2183 -421.8818)">
			<stop  offset="0" style="stop-color:#002E7F"/>
			<stop  offset="1" style="stop-color:#16497F"/>
		</linearGradient>
		<polygon fill="url(#SVGID_20_)" points="625.211,182.169 752.968,82.071 752.968,296.555 		"/>
		
			<linearGradient id="SVGID_21_" gradientUnits="userSpaceOnUse" x1="604.0508" y1="-1322.3081" x2="829.8813" y2="-1322.3081" gradientTransform="matrix(0 1 -1 0 -633.2183 -421.8818)">
			<stop  offset="0" style="stop-color:#132459"/>
			<stop  offset="1" style="stop-color:#10345B"/>
		</linearGradient>
		<polygon fill="url(#SVGID_21_)" points="655.562,408 625.211,182.169 752.968,296.555 		"/>
		
			<linearGradient id="SVGID_22_" gradientUnits="userSpaceOnUse" x1="789.0513" y1="-721.4473" x2="829.9556" y2="-721.4473" gradientTransform="matrix(0 1 -1 0 -633.2183 -421.8818)">
			<stop  offset="0" style="stop-color:#002E7F"/>
			<stop  offset="1" style="stop-color:#16497F"/>
		</linearGradient>
		<polygon fill="url(#SVGID_22_)" points="0.366,407.61 0.366,367.17 176.093,408.074 		"/>
		
			<linearGradient id="SVGID_23_" gradientUnits="userSpaceOnUse" x1="420.8818" y1="-725.4492" x2="494.3564" y2="-725.4492" gradientTransform="matrix(0 1 -1 0 -633.2183 -421.8818)">
			<stop  offset="0" style="stop-color:#002E7F"/>
			<stop  offset="1" style="stop-color:#16497F"/>
		</linearGradient>
		<polygon fill="url(#SVGID_23_)" points="60.328,72.475 0.366,-1 184.097,-0.945 		"/>
		
			<linearGradient id="SVGID_24_" gradientUnits="userSpaceOnUse" x1="505.9102" y1="-1050.1685" x2="768.9204" y2="-1050.1685" gradientTransform="matrix(0 1 -1 0 -633.2183 -421.8818)">
			<stop  offset="0" style="stop-color:#002E7F"/>
			<stop  offset="1" style="stop-color:#16497F"/>
		</linearGradient>
		<polygon fill="url(#SVGID_24_)" points="455.688,347.038 414.121,262.776 402.818,239.914 336.639,105.803 327.206,84.028 
			342.491,96.476 506.695,237.258 		"/>
	</g>
</g>
</svg>
